<mxfile host="app.diagrams.net" modified="2022-05-30T18:29:07.850Z" agent="5.0 (Macintosh; Intel Mac OS X 10_15_7) AppleWebKit/537.36 (KHTML, like Gecko) Chrome/102.0.5005.61 Safari/537.36" etag="Lbkn7_VJkm8PEi4OaH3B" version="18.1.3" type="github">
  <diagram id="1VyA6Kvv1DGgPEcoHKuE" name="Page-1">
    <mxGraphModel dx="1141" dy="771" grid="0" gridSize="10" guides="1" tooltips="1" connect="1" arrows="1" fold="1" page="1" pageScale="1" pageWidth="850" pageHeight="1100" math="0" shadow="0">
      <root>
        <mxCell id="0" />
        <mxCell id="1" parent="0" />
        <mxCell id="0Xt1kHQcpGJhjdJRcajE-1" value="" style="rounded=1;whiteSpace=wrap;html=1;fillColor=#1ba1e2;fontColor=#ffffff;strokeColor=#006EAF;" vertex="1" parent="1">
          <mxGeometry x="197" y="251" width="440" height="86" as="geometry" />
        </mxCell>
        <mxCell id="0Xt1kHQcpGJhjdJRcajE-2" value="" style="rounded=1;whiteSpace=wrap;html=1;" vertex="1" parent="1">
          <mxGeometry x="203" y="394" width="440" height="262" as="geometry" />
        </mxCell>
        <mxCell id="0Xt1kHQcpGJhjdJRcajE-3" value="PyTorch" style="rounded=1;whiteSpace=wrap;html=1;fillColor=#e3c800;fontColor=#000000;strokeColor=#B09500;" vertex="1" parent="1">
          <mxGeometry x="253" y="414" width="80" height="50" as="geometry" />
        </mxCell>
        <mxCell id="0Xt1kHQcpGJhjdJRcajE-4" value="Tensorflow" style="rounded=1;whiteSpace=wrap;html=1;fillColor=#fa6800;fontColor=#000000;strokeColor=#C73500;" vertex="1" parent="1">
          <mxGeometry x="388" y="414" width="80" height="50" as="geometry" />
        </mxCell>
        <mxCell id="0Xt1kHQcpGJhjdJRcajE-5" value="MXNet" style="rounded=1;whiteSpace=wrap;html=1;fillColor=#6d8764;fontColor=#ffffff;strokeColor=#3A5431;" vertex="1" parent="1">
          <mxGeometry x="523" y="414" width="80" height="50" as="geometry" />
        </mxCell>
        <mxCell id="0Xt1kHQcpGJhjdJRcajE-7" value="Kera" style="rounded=1;whiteSpace=wrap;html=1;" vertex="1" parent="1">
          <mxGeometry x="253" y="497" width="80" height="50" as="geometry" />
        </mxCell>
        <mxCell id="0Xt1kHQcpGJhjdJRcajE-8" value="&lt;span style=&quot;color: rgb(32, 33, 36); font-family: Roboto, arial, sans-serif; font-size: 16px; text-align: left; background-color: rgb(255, 255, 255);&quot;&gt;CNTK&lt;/span&gt;" style="rounded=1;whiteSpace=wrap;html=1;" vertex="1" parent="1">
          <mxGeometry x="388" y="497" width="80" height="50" as="geometry" />
        </mxCell>
        <mxCell id="0Xt1kHQcpGJhjdJRcajE-9" value="&lt;span style=&quot;color: rgb(32, 33, 36); font-family: Roboto, arial, sans-serif; font-size: 16px; text-align: left; background-color: rgb(255, 255, 255);&quot;&gt;Theano&lt;/span&gt;" style="rounded=1;whiteSpace=wrap;html=1;" vertex="1" parent="1">
          <mxGeometry x="523" y="497" width="80" height="50" as="geometry" />
        </mxCell>
        <mxCell id="0Xt1kHQcpGJhjdJRcajE-10" value="" style="rounded=1;whiteSpace=wrap;html=1;fillColor=#60a917;fontColor=#ffffff;strokeColor=#2D7600;" vertex="1" parent="1">
          <mxGeometry x="210.75" y="716" width="440" height="50" as="geometry" />
        </mxCell>
        <mxCell id="0Xt1kHQcpGJhjdJRcajE-11" value="" style="rounded=1;whiteSpace=wrap;html=1;fillColor=#1ba1e2;fontColor=#ffffff;strokeColor=#006EAF;" vertex="1" parent="1">
          <mxGeometry x="205" y="837.5" width="440" height="40" as="geometry" />
        </mxCell>
        <mxCell id="0Xt1kHQcpGJhjdJRcajE-12" value="" style="rounded=1;whiteSpace=wrap;html=1;fillColor=#f0a30a;fontColor=#000000;strokeColor=#BD7000;" vertex="1" parent="1">
          <mxGeometry x="201" y="946" width="440" height="50" as="geometry" />
        </mxCell>
        <mxCell id="0Xt1kHQcpGJhjdJRcajE-13" value="&lt;font style=&quot;font-size: 20px;&quot;&gt;Pre-Trained Model&lt;/font&gt;" style="text;html=1;strokeColor=none;fillColor=none;align=center;verticalAlign=middle;whiteSpace=wrap;rounded=0;fontStyle=1;fontSize=20;" vertex="1" parent="1">
          <mxGeometry x="326" y="264.5" width="190" height="45" as="geometry" />
        </mxCell>
        <mxCell id="0Xt1kHQcpGJhjdJRcajE-15" value="&lt;font style=&quot;font-size: 16px;&quot;&gt;HPC/Deep learning / Machine learning Application Framework in Containers&lt;/font&gt;" style="text;html=1;strokeColor=none;fillColor=none;align=left;verticalAlign=middle;whiteSpace=wrap;rounded=0;fontStyle=1" vertex="1" parent="1">
          <mxGeometry x="228" y="545" width="409" height="120" as="geometry" />
        </mxCell>
        <mxCell id="0Xt1kHQcpGJhjdJRcajE-17" value="Containers Runtime" style="text;html=1;strokeColor=none;fillColor=none;align=left;verticalAlign=middle;whiteSpace=wrap;rounded=0;fontStyle=1;fontSize=16;" vertex="1" parent="1">
          <mxGeometry x="335.74999999999994" y="721" width="190" height="45" as="geometry" />
        </mxCell>
        <mxCell id="0Xt1kHQcpGJhjdJRcajE-19" value="NVidia Drivers" style="text;html=1;strokeColor=none;fillColor=none;align=left;verticalAlign=middle;whiteSpace=wrap;rounded=0;fontStyle=1;fontSize=18;" vertex="1" parent="1">
          <mxGeometry x="354.99999999999994" y="835" width="190" height="45" as="geometry" />
        </mxCell>
        <mxCell id="0Xt1kHQcpGJhjdJRcajE-21" value="Host&amp;nbsp; OS" style="text;html=1;strokeColor=none;fillColor=none;align=left;verticalAlign=middle;whiteSpace=wrap;rounded=0;fontStyle=1;fontSize=18;" vertex="1" parent="1">
          <mxGeometry x="371.99999999999994" y="951" width="190" height="45" as="geometry" />
        </mxCell>
        <mxCell id="0Xt1kHQcpGJhjdJRcajE-24" value="&lt;font style=&quot;font-size: 32px;&quot;&gt;NVIDIA NGC Software Stack&lt;/font&gt;" style="text;html=1;strokeColor=none;fillColor=none;align=center;verticalAlign=middle;whiteSpace=wrap;rounded=0;fontSize=20;fontStyle=5" vertex="1" parent="1">
          <mxGeometry x="142" y="163" width="546" height="40" as="geometry" />
        </mxCell>
        <mxCell id="0Xt1kHQcpGJhjdJRcajE-25" value="" style="endArrow=classic;html=1;rounded=0;fontSize=16;dashed=1;" edge="1" parent="1">
          <mxGeometry width="50" height="50" relative="1" as="geometry">
            <mxPoint x="423" y="345" as="sourcePoint" />
            <mxPoint x="422.5" y="392" as="targetPoint" />
          </mxGeometry>
        </mxCell>
        <mxCell id="0Xt1kHQcpGJhjdJRcajE-27" value="" style="endArrow=classic;html=1;rounded=0;fontSize=16;dashed=1;" edge="1" parent="1">
          <mxGeometry width="50" height="50" relative="1" as="geometry">
            <mxPoint x="421" y="661" as="sourcePoint" />
            <mxPoint x="420.5" y="708" as="targetPoint" />
          </mxGeometry>
        </mxCell>
        <mxCell id="0Xt1kHQcpGJhjdJRcajE-28" value="" style="endArrow=classic;html=1;rounded=0;fontSize=16;dashed=1;" edge="1" parent="1">
          <mxGeometry width="50" height="50" relative="1" as="geometry">
            <mxPoint x="419" y="783" as="sourcePoint" />
            <mxPoint x="418.5" y="830" as="targetPoint" />
          </mxGeometry>
        </mxCell>
        <mxCell id="0Xt1kHQcpGJhjdJRcajE-29" value="" style="endArrow=classic;html=1;rounded=0;fontSize=16;dashed=1;" edge="1" parent="1">
          <mxGeometry width="50" height="50" relative="1" as="geometry">
            <mxPoint x="416.5" y="894" as="sourcePoint" />
            <mxPoint x="416" y="941" as="targetPoint" />
          </mxGeometry>
        </mxCell>
      </root>
    </mxGraphModel>
  </diagram>
</mxfile>
